<?xml version="1.0" encoding="utf-8"?>
<!-- Generator: Adobe Illustrator 24.0.0, SVG Export Plug-In . SVG Version: 6.00 Build 0)  -->
<svg version="1.1" id="Capa_1" xmlns="http://www.w3.org/2000/svg" xmlns:xlink="http://www.w3.org/1999/xlink" x="0px" y="0px"
	 viewBox="0 0 512 512" style="enable-background:new 0 0 512 512;" xml:space="preserve">
<style type="text/css">
	.st0{fill:#FFFFFF;}
</style>
<g>
	<path class="st0" d="M507.6,422.8l-86.5-86.5l42.4-42.4c3.7-3.7,5.2-9,4-14.1s-4.9-9.1-9.9-10.8l-254.6-84.9
		c-5.4-1.8-11.3-0.4-15.4,3.6c-4,4-5.4,10-3.6,15.4L269,457.7c1.6,4.9,5.7,8.7,10.8,9.9c5.1,1.2,10.4-0.3,14.1-4l42.4-42.4
		l86.5,86.5c2.9,2.9,6.8,4.4,10.6,4.4s7.7-1.5,10.6-4.4l63.6-63.6C513.5,438.1,513.5,428.6,507.6,422.8z M433.4,475.8l-86.5-86.5
		c-5.9-5.9-15.4-5.9-21.2,0l-35.9,35.9l-67.7-203.1l203.1,67.7l-35.9,35.9c-5.9,5.9-5.9,15.4,0,21.2l86.5,86.5L433.4,475.8z"/>
	<path class="st0" d="M195,120c8.3,0,15-6.7,15-15V15c0-8.3-6.7-15-15-15s-15,6.7-15,15v90C180,113.3,186.7,120,195,120z"/>
	<path class="st0" d="M78.3,57.1c-5.9-5.9-15.4-5.9-21.2,0s-5.9,15.4,0,21.2l63.6,63.6c5.9,5.9,15.4,5.9,21.2,0
		c5.9-5.9,5.9-15.4,0-21.2L78.3,57.1z"/>
	<path class="st0" d="M120.8,248l-63.6,63.6c-5.9,5.9-5.9,15.4,0,21.2c5.9,5.9,15.4,5.9,21.2,0l63.6-63.6c5.9-5.9,5.9-15.4,0-21.2
		C136.1,242.2,126.6,242.2,120.8,248z"/>
	<path class="st0" d="M269.2,142l63.6-63.6c5.9-5.9,5.9-15.4,0-21.2c-5.9-5.9-15.4-5.9-21.2,0L248,120.8c-5.9,5.9-5.9,15.4,0,21.2
		C253.9,147.8,263.4,147.8,269.2,142z"/>
	<path class="st0" d="M120,195c0-8.3-6.7-15-15-15H15c-8.3,0-15,6.7-15,15s6.7,15,15,15h90C113.3,210,120,203.3,120,195z"/>
</g>
</svg>
